<svg width="251" height="156" viewBox="0 0 251 156" fill="none" xmlns="http://www.w3.org/2000/svg">
<path d="M51.0469 81.4688V82.4688H51.967L52.0434 81.5518L51.0469 81.4688ZM24.4688 81.4688L23.5115 81.7581L23.7264 82.4688H24.4688V81.4688ZM24.7031 73.1719V72.1719H24.0101L23.7668 72.8208L24.7031 73.1719ZM33.6094 73.1719V74.1719H34.8057L34.5935 72.9946L33.6094 73.1719ZM22.4062 70.7812L23.2079 71.3791L23.2127 71.3726L22.4062 70.7812ZM22.3125 85.2656L21.4932 85.8391L21.4997 85.8481L22.3125 85.2656ZM32.625 85.4531L33.3937 84.8135L32.6662 83.9391L31.8922 84.7727L32.625 85.4531ZM42.6094 97.4531L43.227 98.2396L44.036 97.6043L43.3781 96.8135L42.6094 97.4531ZM9.65625 61.3125L8.95381 60.6008L8.95148 60.6031L9.65625 61.3125ZM44.2969 61.1719L43.5874 61.8766L43.5922 61.8814L44.2969 61.1719ZM51.0469 80.4688H24.4688V82.4688H51.0469V80.4688ZM25.426 81.1794C25.0414 79.9073 24.8594 78.7718 24.8594 77.7656H22.8594C22.8594 79.0094 23.0836 80.3427 23.5115 81.7581L25.426 81.1794ZM24.8594 77.7656C24.8594 76.3261 25.118 74.9136 25.6395 73.523L23.7668 72.8208C23.1633 74.4301 22.8594 76.0802 22.8594 77.7656H24.8594ZM24.7031 74.1719H33.6094V72.1719H24.7031V74.1719ZM34.5935 72.9946C34.2551 71.1162 33.5342 69.5824 32.3398 68.5218C31.1368 67.4536 29.5704 66.9688 27.75 66.9688V68.9688C29.2108 68.9688 30.2616 69.3511 31.0118 70.0173C31.7705 70.691 32.3387 71.7588 32.6252 73.3492L34.5935 72.9946ZM27.75 66.9688C25.2212 66.9688 23.1494 68.0769 21.5998 70.1899L23.2127 71.3726C24.4131 69.7356 25.9038 68.9688 27.75 68.9688V66.9688ZM21.6046 70.1834C20.0703 72.2408 19.3438 74.842 19.3438 77.9062H21.3438C21.3438 75.158 21.9922 73.0092 23.2079 71.3791L21.6046 70.1834ZM19.3438 77.9062C19.3438 81.0769 20.0303 83.7492 21.4933 85.8391L23.1317 84.6922C21.9697 83.0321 21.3438 80.7981 21.3438 77.9062H19.3438ZM21.4997 85.8481C23.0159 87.9637 25.0583 89.0781 27.5625 89.0781V87.0781C25.7542 87.0781 24.2966 86.3175 23.1253 84.6831L21.4997 85.8481ZM27.5625 89.0781C29.6806 89.0781 31.6151 88.0103 33.3578 86.1336L31.8922 84.7727C30.3849 86.3959 28.9444 87.0781 27.5625 87.0781V89.0781ZM31.8563 86.0927L41.8407 98.0927L43.3781 96.8135L33.3937 84.8135L31.8563 86.0927ZM41.9918 96.6666C37.5039 100.191 32.5476 101.938 27.0938 101.938V103.938C33.0149 103.938 38.4023 102.028 43.227 98.2396L41.9918 96.6666ZM27.0938 101.938C20.4056 101.938 14.8339 99.7036 10.3118 95.2413L8.907 96.6649C13.8223 101.515 19.9069 103.938 27.0938 103.938V101.938ZM10.3118 95.2413C5.79118 90.7806 3.53125 85.2748 3.53125 78.6562H1.53125C1.53125 85.7877 3.99007 91.8131 8.907 96.6649L10.3118 95.2413ZM3.53125 78.6562C3.53125 72.0722 5.80463 66.5484 10.361 62.0219L8.95148 60.6031C4.00787 65.5141 1.53125 71.5528 1.53125 78.6562H3.53125ZM10.3587 62.0242C14.9461 57.4968 20.5502 55.2344 27.2344 55.2344V53.2344C20.0435 53.2344 13.9289 55.6907 8.95381 60.6008L10.3587 62.0242ZM27.2344 55.2344C33.7612 55.2344 39.1896 57.4489 43.5874 61.8766L45.0064 60.4672C40.2166 55.6448 34.27 53.2344 27.2344 53.2344V55.2344ZM43.5922 61.8814C48.0208 66.2801 50.2344 71.6933 50.2344 78.1875H52.2344C52.2344 71.1817 49.823 65.2512 45.0016 60.4624L43.5922 61.8814ZM50.2344 78.1875C50.2344 78.8304 50.1751 79.8889 50.0503 81.3857L52.0434 81.5518C52.1687 80.0486 52.2344 78.9196 52.2344 78.1875H50.2344ZM75.8906 55.2656H76.8906V54.2656H75.8906V55.2656ZM75.8906 102V103H76.8906V102H75.8906ZM58.3594 102H57.3594V103H58.3594V102ZM58.3594 55.2656V54.2656H57.3594V55.2656H58.3594ZM73.3125 36.9375L72.6119 37.6511L72.6185 37.6575L72.6251 37.6638L73.3125 36.9375ZM73.4531 48.8438L72.7669 48.1163L72.76 48.1229L73.4531 48.8438ZM60.8438 48.8438L60.1506 49.5646L60.1575 49.5711L60.8438 48.8438ZM60.9844 36.9375L61.6783 37.6576L61.6785 37.6573L60.9844 36.9375ZM74.8906 55.2656V102H76.8906V55.2656H74.8906ZM75.8906 101H58.3594V103H75.8906V101ZM59.3594 102V55.2656H57.3594V102H59.3594ZM58.3594 56.2656H75.8906V54.2656H58.3594V56.2656ZM67.1719 35.4062C69.2807 35.4062 71.0772 36.1442 72.6119 37.6511L74.0131 36.2239C72.1103 34.3558 69.813 33.4062 67.1719 33.4062V35.4062ZM72.6251 37.6638C74.1881 39.1431 74.9375 40.8541 74.9375 42.8438H76.9375C76.9375 40.2709 75.9369 38.0444 73.9999 36.2112L72.6251 37.6638ZM74.9375 42.8438C74.9375 45.0276 74.2076 46.7572 72.7669 48.1164L74.1393 49.5711C76.0111 47.8053 76.9375 45.5349 76.9375 42.8438H74.9375ZM72.76 48.1229C71.3471 49.4815 69.5142 50.1875 67.1719 50.1875V52.1875C69.9546 52.1875 72.3091 51.331 74.1462 49.5646L72.76 48.1229ZM67.1719 50.1875C64.8299 50.1875 62.9769 49.4814 61.53 48.1164L60.1575 49.5711C62.0231 51.3311 64.3888 52.1875 67.1719 52.1875V50.1875ZM61.5369 48.1229C60.125 46.7653 59.4062 45.0338 59.4062 42.8438H57.4062C57.4062 45.5287 58.3125 47.7972 60.1506 49.5646L61.5369 48.1229ZM59.4062 42.8438C59.4062 40.8479 60.145 39.1351 61.6783 37.6576L60.2905 36.2174C58.3863 38.0524 57.4062 40.2771 57.4062 42.8438H59.4062ZM61.6785 37.6573C63.247 36.1448 65.0625 35.4062 67.1719 35.4062V33.4062C64.5312 33.4062 62.2217 34.3552 60.2902 36.2177L61.6785 37.6573Z" fill="#1B66A0"/>
<path d="M154.641 38.0156H155.641V37.0156H154.641V38.0156ZM154.641 57.5625H153.641V59.5248L155.228 58.3716L154.641 57.5625ZM174.234 59.2031L173.456 59.8315L173.46 59.836L174.234 59.2031ZM178.219 102V103H179.219V102H178.219ZM160.688 102H159.688V103H160.688V102ZM160.031 73.2656L159.17 73.7744L159.179 73.7886L159.188 73.8025L160.031 73.2656ZM154.641 102V103H155.641V102H154.641ZM137.109 102H136.109V103H137.109V102ZM137.109 38.0156V37.0156H136.109V38.0156H137.109ZM153.641 38.0156V57.5625H155.641V38.0156H153.641ZM155.228 58.3716C158.067 56.3097 160.835 55.3281 163.547 55.3281V53.3281C160.322 53.3281 157.152 54.5028 154.053 56.7534L155.228 58.3716ZM163.547 55.3281C167.771 55.3281 171.037 56.8365 173.456 59.8315L175.012 58.5748C172.181 55.0697 168.322 53.3281 163.547 53.3281V55.3281ZM173.46 59.836C175.93 62.8575 177.219 67.0005 177.219 72.375H179.219C179.219 66.687 177.852 62.0488 175.009 58.5703L173.46 59.836ZM177.219 72.375V102H179.219V72.375H177.219ZM178.219 101H160.688V103H178.219V101ZM161.688 102V77.2969H159.688V102H161.688ZM161.688 77.2969C161.688 76.2656 161.631 75.3717 161.51 74.6284C161.392 73.9006 161.199 73.2386 160.875 72.7287L159.188 73.8025C159.301 73.9801 159.436 74.3338 159.536 74.9497C159.634 75.5501 159.688 76.3282 159.688 77.2969H161.688ZM160.892 72.7569C160.223 71.6251 158.966 71.2344 157.594 71.2344V73.2344C158.659 73.2344 159.027 73.5311 159.17 73.7744L160.892 72.7569ZM157.594 71.2344C156.325 71.2344 155.254 71.7253 154.551 72.7634C153.895 73.732 153.641 75.059 153.641 76.5938H155.641C155.641 75.2222 155.879 74.3696 156.207 73.8851C156.488 73.4701 156.894 73.2344 157.594 73.2344V71.2344ZM153.641 76.5938V102H155.641V76.5938H153.641ZM154.641 101H137.109V103H154.641V101ZM138.109 102V38.0156H136.109V102H138.109ZM137.109 39.0156H154.641V37.0156H137.109V39.0156ZM204.094 38.0156H205.094V37.0156H204.094V38.0156ZM204.094 55.9219H203.094V56.9219H204.094V55.9219ZM211.969 55.9219H212.969V54.9219H211.969V55.9219ZM211.969 74.4375V75.4375H212.969V74.4375H211.969ZM204.094 74.4375V73.4375H203.094V74.4375H204.094ZM205.828 82.125L205.056 82.7602L205.064 82.7702L205.828 82.125ZM212.297 84.2344H213.297V83.2344H212.297V84.2344ZM212.297 102.656L212.331 103.656L213.297 103.622V102.656H212.297ZM199.031 99.9375L198.565 100.822L198.568 100.824L199.031 99.9375ZM190.594 92.4375L189.762 92.9922L189.764 92.996L190.594 92.4375ZM186.562 38.0156V37.0156H185.562V38.0156H186.562ZM203.094 38.0156V55.9219H205.094V38.0156H203.094ZM204.094 56.9219H211.969V54.9219H204.094V56.9219ZM210.969 55.9219V74.4375H212.969V55.9219H210.969ZM211.969 73.4375H204.094V75.4375H211.969V73.4375ZM203.094 74.4375C203.094 78.1858 203.661 81.0643 205.056 82.7601L206.601 81.4899C205.682 80.3732 205.094 78.1267 205.094 74.4375H203.094ZM205.064 82.7702C206.54 84.5181 209.075 85.2344 212.297 85.2344V83.2344C209.268 83.2344 207.491 82.5444 206.592 81.4798L205.064 82.7702ZM211.297 84.2344V102.656H213.297V84.2344H211.297ZM212.262 101.657C211.358 101.688 210.701 101.703 210.281 101.703V103.703C210.737 103.703 211.423 103.687 212.331 103.656L212.262 101.657ZM210.281 101.703C206.474 101.703 202.883 100.82 199.494 99.0511L198.568 100.824C202.242 102.742 206.151 103.703 210.281 103.703V101.703ZM199.497 99.0528C196.138 97.2829 193.452 94.8926 191.423 91.879L189.764 92.996C191.985 96.2949 194.925 98.9046 198.565 100.822L199.497 99.0528ZM191.426 91.8828C188.882 88.0667 187.562 82.9366 187.562 76.4062H185.562C185.562 83.1884 186.931 88.7458 189.762 92.9922L191.426 91.8828ZM187.562 76.4062V38.0156H185.562V76.4062H187.562ZM186.562 39.0156H204.094V37.0156H186.562V39.0156ZM249.938 55.9219H250.938V54.9219H249.938V55.9219ZM249.938 74.3906V75.3906H250.938V74.3906H249.938ZM243.094 81.2344L242.098 81.1428L242.098 81.1448L243.094 81.2344ZM232.594 100.359L233.102 101.22L233.109 101.216L232.594 100.359ZM216.188 103.266H215.188V104.266H216.188V103.266ZM216.188 84.7031V83.7031H215.188V84.7031H216.188ZM222.984 82.9688L223.682 83.6852L223.682 83.685L222.984 82.9688ZM225.094 76.7812L226.092 76.845L226.092 76.8335L225.094 76.7812ZM226.406 66.7031L225.459 66.3823L225.457 66.3892L225.455 66.3961L226.406 66.7031ZM230.344 60.9375L231.039 61.6559L231.041 61.6543L230.344 60.9375ZM248.938 55.9219V74.3906H250.938V55.9219H248.938ZM249.938 73.3906C247.409 73.3906 245.353 73.8573 244.121 75.0898L245.535 76.504C246.178 75.8614 247.528 75.3906 249.938 75.3906V73.3906ZM244.121 75.0898C243.514 75.6972 243.078 76.5416 242.762 77.5321C242.444 78.53 242.227 79.7396 242.098 81.1428L244.09 81.3259C244.211 80.0104 244.408 78.9544 244.668 78.1398C244.93 77.3178 245.236 76.8028 245.535 76.504L244.121 75.0898ZM242.098 81.1448C241.306 89.9487 237.923 95.9898 232.079 99.5023L233.109 101.216C239.64 97.2915 243.257 90.5826 244.09 81.324L242.098 81.1448ZM232.085 99.4983C229.023 101.306 224.572 102.266 218.625 102.266V104.266C224.74 104.266 229.602 103.287 233.102 101.22L232.085 99.4983ZM218.625 102.266H216.188V104.266H218.625V102.266ZM217.188 103.266V84.7031H215.188V103.266H217.188ZM216.188 85.7031H216.984V83.7031H216.188V85.7031ZM216.984 85.7031C219.888 85.7031 222.214 85.1146 223.682 83.6852L222.287 82.2523C221.38 83.1354 219.706 83.7031 216.984 83.7031V85.7031ZM223.682 83.685C225.169 82.2362 225.899 79.8643 226.092 76.845L224.096 76.7175C223.914 79.5732 223.237 81.3263 222.287 82.2525L223.682 83.685ZM226.092 76.8335C226.342 72.0539 226.777 68.8113 227.358 67.0101L225.455 66.3961C224.786 68.4699 224.345 71.9461 224.095 76.729L226.092 76.8335ZM227.353 67.0239C227.944 65.2794 229.148 63.4875 231.039 61.6559L229.648 60.2191C227.602 62.2 226.181 64.2518 225.459 66.3823L227.353 67.0239ZM231.041 61.6543C234.245 58.5378 238.734 56.9219 244.641 56.9219V54.9219C238.36 54.9219 233.318 56.6497 229.646 60.2207L231.041 61.6543ZM244.641 56.9219H249.938V54.9219H244.641V56.9219Z" fill="#1B66A0"/>
<circle cx="107" cy="78" r="25" fill="#FFC000"/>
<g filter="url(#filter0_f_329_127)">
<circle cx="107" cy="78" r="19.5" stroke="#826304"/>
</g>
<circle cx="107" cy="78" r="22.5" stroke="#FFC000" stroke-width="5"/>
<g filter="url(#filter1_d_329_127)">
<circle cx="107" cy="78" r="16" fill="#FFC000"/>
</g>
<circle cx="107" cy="128" r="25" fill="#C00000"/>
<g filter="url(#filter2_f_329_127)">
<circle cx="107" cy="128" r="20" fill="#C00000"/>
<circle cx="107" cy="128" r="19.5" stroke="#3E0202"/>
</g>
<g filter="url(#filter3_f_329_127)">
<circle cx="107" cy="128" r="19.5" stroke="#826304"/>
</g>
<circle cx="107" cy="128" r="22.5" stroke="#C00000" stroke-width="5"/>
<g filter="url(#filter4_d_329_127)">
<circle cx="107" cy="128" r="16" fill="#C00000"/>
</g>
<defs>
<filter id="filter0_f_329_127" x="79" y="50" width="56" height="56" filterUnits="userSpaceOnUse" color-interpolation-filters="sRGB">
<feFlood flood-opacity="0" result="BackgroundImageFix"/>
<feBlend mode="normal" in="SourceGraphic" in2="BackgroundImageFix" result="shape"/>
<feGaussianBlur stdDeviation="4" result="effect1_foregroundBlur_329_127"/>
</filter>
<filter id="filter1_d_329_127" x="91" y="62" width="40" height="40" filterUnits="userSpaceOnUse" color-interpolation-filters="sRGB">
<feFlood flood-opacity="0" result="BackgroundImageFix"/>
<feColorMatrix in="SourceAlpha" type="matrix" values="0 0 0 0 0 0 0 0 0 0 0 0 0 0 0 0 0 0 127 0" result="hardAlpha"/>
<feOffset dx="4" dy="4"/>
<feGaussianBlur stdDeviation="2"/>
<feComposite in2="hardAlpha" operator="out"/>
<feColorMatrix type="matrix" values="0 0 0 0 0.966667 0 0 0 0 0.730828 0 0 0 0 0.0120833 0 0 0 1 0"/>
<feBlend mode="normal" in2="BackgroundImageFix" result="effect1_dropShadow_329_127"/>
<feBlend mode="normal" in="SourceGraphic" in2="effect1_dropShadow_329_127" result="shape"/>
</filter>
<filter id="filter2_f_329_127" x="82" y="103" width="50" height="50" filterUnits="userSpaceOnUse" color-interpolation-filters="sRGB">
<feFlood flood-opacity="0" result="BackgroundImageFix"/>
<feBlend mode="normal" in="SourceGraphic" in2="BackgroundImageFix" result="shape"/>
<feGaussianBlur stdDeviation="2.5" result="effect1_foregroundBlur_329_127"/>
</filter>
<filter id="filter3_f_329_127" x="79" y="100" width="56" height="56" filterUnits="userSpaceOnUse" color-interpolation-filters="sRGB">
<feFlood flood-opacity="0" result="BackgroundImageFix"/>
<feBlend mode="normal" in="SourceGraphic" in2="BackgroundImageFix" result="shape"/>
<feGaussianBlur stdDeviation="4" result="effect1_foregroundBlur_329_127"/>
</filter>
<filter id="filter4_d_329_127" x="91" y="112" width="40" height="40" filterUnits="userSpaceOnUse" color-interpolation-filters="sRGB">
<feFlood flood-opacity="0" result="BackgroundImageFix"/>
<feColorMatrix in="SourceAlpha" type="matrix" values="0 0 0 0 0 0 0 0 0 0 0 0 0 0 0 0 0 0 127 0" result="hardAlpha"/>
<feOffset dx="4" dy="4"/>
<feGaussianBlur stdDeviation="2"/>
<feComposite in2="hardAlpha" operator="out"/>
<feColorMatrix type="matrix" values="0 0 0 0 0.7125 0 0 0 0 0.011875 0 0 0 0 0.011875 0 0 0 1 0"/>
<feBlend mode="normal" in2="BackgroundImageFix" result="effect1_dropShadow_329_127"/>
<feBlend mode="normal" in="SourceGraphic" in2="effect1_dropShadow_329_127" result="shape"/>
</filter>
</defs>
</svg>
